<svg xmlns="http://www.w3.org/2000/svg" viewBox="0 0 2000 2000">
  <style>
    path { fill: #0E0E0E; }
    @media (prefers-color-scheme: dark) { path { fill: #F4F1EA; } }
  </style>
  <path d="M1187.28,827.64c44.8-12.78,79.62-26.33,102.12-35.81,19.22-8.09,93.18-40.04,165.77-68.96,23.4-9.32,48.19-18.8,72.94-9.28,19.41,7.47,21.93,18.27,42.44,27.85,30.65,14.32,50.71.43,83.37,2.02,68.04,3.32,116.77,70.1,113.58,74.9-2.14,3.22-29.92-18.09-79.72-18.09h0c-22.83,7.15-41.29,16.94-56.22,27.37-132.14,92.29-104.12,315.48-100.79,339.5-16.68-20.12-36.8-50.12-49.07-90.18-20.39-66.59-12.1-167.99,30.5-225.45,3.3-4.46,9.02-11.61,6.63-15.91-8.48-15.32-106.12,16.18-176.38,53.05-41.21,21.62-98.46,58.45-156.49,122.01.42-15.63,3-38.43,13.26-63.66,17.26-42.42,46.35-67.32,61-78.24-24.31-13.7-48.63-27.41-72.94-41.11Z"/>
  <path d="M677.6,1909.59c37.09-17.77,96.8-46.02,171.08-79.57,166.49-75.2,247.68-105.4,344.08-170.1,37.19-24.96,92.8-65.9,145.22-133.09,0,0,12.53-16.47,25.26-34.98,74.96-108.98,107.26-217.29,122.01-294.41,6.27,34.94,12.3,89.8,2.65,155.16-27.21,184.26-155.71,293.94-188.32,320.94-20.79,17.21-65.08,51.23-232.08,115.38-93.36,35.86-225.24,81.21-389.9,120.68Z"/>
  <path d="M396.69,90.41c8.24,53.12,23.71,127.98,55.15,213.4,16.78,45.59,83.63,217.9,295.86,444.03,107.86,114.92,286.93,279.61,553.53,424.46-22.11-1.6-41.87-3.51-59.3-5.54-26.87-3.13-48.19-6.52-63.99-9.44-22.67-4.19-48.44-14.59-62.85-22.22-395.18-209.23-517.98-367.55-517.98-367.55-159.53-212.43-190.42-478.45-197.16-564.34-3.67-46.8-3.81-85.86-3.25-112.8Z"/>
  <path d="M235.66,946.34c5.41-6.57,82.05,52.3,148.53,96.37,47.32,31.37,91.68,58.14,138.95,82.69,142.51,74.03,265.62,111.71,351.74,135.69,67.88,18.9,110.84,30.65,173.29,38.02,86.34,10.18,159.26,5.99,210.42,0-60.35,36.51-113.76,49.21-146.77,54.29-50.23,7.73-91.85,3.77-135.26-.36-41.11-3.91-71.77-10.29-112.28-18.57-22.51-4.6-64.91-13.79-118.47-29.18-100.46-28.85-173.17-56.95-251.09-94.6-89.93-43.46-135.37-65.99-158.26-105.21-12.61-21.61-18.86-41.2-44.21-82.22-31.41-50.84-59.89-72.91-56.58-76.92Z"/>
  <path d="M232.97,518.44c7.97-6.63,76.26,86.1,137.55,157.96,43.62,51.15,85.29,95.85,130.86,138.6,137.38,128.91,263.76,208.02,352.87,260.43,46.39,27.28,102.52,59.24,182.3,92.89,89.04,37.56,168.06,60.16,228,74.19-31.33,4.25-58.3,6.26-79.47,7.24,0,0-63.74,2.95-105.93-4.11-.34-.06-5.01-.85-5.01-.84,0,0,5.01.86,5.01.84.02-.09-67.12-4.25-138.37-30.17-25.68-9.35-55.71-22.93-74.83-31.54-13.86-6.25-28.85-13.25-45.08-21.2-23.78-11.65-68.41-34.25-123.7-67.42-103.69-62.22-176.62-116.11-252.56-183.13-87.65-77.36-131.76-117.14-145.81-171.41-7.74-29.9-8.97-55.63-25.23-112.77-20.15-70.82-45.47-105.51-40.61-109.55Z"/>
  <path d="M335.56,1185.94c5.15-6.66,61.16,37.13,143.23,80.46,168.86,89.15,324.58,111.18,412.89,122.89,75.24,9.98,176.86,17.11,297.07,7.07-12.3,8.5-30.55,20.03-53.93,30.94-40.97,19.13-111.09,42.62-251.09,29.18-85.91-8.25-242.77-23.31-398.74-129.08-86.45-58.63-155.55-133.54-149.42-141.46Z"/>
  <path d="M506.2,1403.44c93.62,38.67,175.8,62.85,239.3,78.39,140.16,34.3,222.36,34.58,250.5,34.19,18.22-.26,33.31-1.08,43.62-1.77,5.81-.39,9.55-.79,20.63-1.77,17.25-1.52,31.12-2.66,40.08-3.39-29.5,15.23-72.43,33.55-126.72,44.35-15.61,3.11-65.83,12.3-131.98,7.73-91.12-6.3-154.55-34.71-206.87-58.14-63.92-28.63-96.09-53.97-119.5-86.11-4.16-5.71-7.25-10.55-9.06-13.48Z"/>
  <path d="M661.41,1580.2c40.79,14.01,94.44,27.98,158.31,33.33,90.26,7.57,165.45-5.03,216.53-17.96-20.14,12.35-48.94,27.78-85.53,40.45-28.66,9.92-54.71,18.94-89.68,20.46-69.52,3.03-122.52-25.8-147.42-39.76-23.31-13.06-40.81-26.73-52.21-36.53Z"/>
  <path d="M752.05,1686.97c18.79,6.45,43.5,12.89,72.92,15.35,41.57,3.49,76.21-2.32,99.74-8.27-9.28,5.69-22.54,12.8-39.4,18.63-13.2,4.57-25.2,8.72-41.31,9.43-32.02,1.4-56.44-11.89-67.91-18.31-10.74-6.02-18.8-12.31-24.05-16.83Z"/>
</svg>
